<svg width="20" height="20" viewBox="0 0 20 20" fill="none" xmlns="http://www.w3.org/2000/svg">
<path fill-rule="evenodd" clip-rule="evenodd" d="M6.87511 5.01225C6.87503 5.00812 6.87499 5.00398 6.87499 4.99984V4.1665C6.87499 2.44061 8.2741 1.0415 9.99999 1.0415C11.7259 1.0415 13.125 2.44061 13.125 4.1665V4.99984C13.125 5.00398 13.1249 5.00812 13.1249 5.01225C14.1976 5.04445 14.854 5.16017 15.3551 5.57606C16.0494 6.15229 16.2323 7.12766 16.5981 9.07839L17.223 12.4117C17.7374 15.1548 17.9945 16.5264 17.2448 17.4298C16.495 18.3332 15.0996 18.3332 12.3087 18.3332H7.69128C4.9004 18.3332 3.50496 18.3332 2.7552 17.4298C2.00543 16.5264 2.2626 15.1548 2.77692 12.4117L3.40192 9.0784C3.76769 7.12766 3.95057 6.15229 4.64488 5.57606C5.146 5.16017 5.8024 5.04445 6.87511 5.01225ZM8.12499 4.1665C8.12499 3.13097 8.96445 2.2915 9.99999 2.2915C11.0355 2.2915 11.875 3.13097 11.875 4.1665V4.99984C11.875 4.99983 11.875 4.99984 11.875 4.99984C11.8123 4.99982 11.7485 4.99984 11.6837 4.99984H8.31629C8.25147 4.99984 8.18771 4.99984 8.12499 4.99986C8.12499 4.99985 8.12499 4.99986 8.12499 4.99986V4.1665Z" fill="black"/>
</svg>
