<svg width="80" height="80" viewBox="0 0 80 80" fill="none" xmlns="http://www.w3.org/2000/svg">
<path fill-rule="evenodd" clip-rule="evenodd" d="M30.7666 0L49.2334 0C59.9316 0 63.811 1.11391 67.7221 3.20559C71.6333 5.29728 74.7027 8.36674 76.7944 12.2779C78.8861 16.189 80 20.0684 80 30.7666V49.2334C80 59.9316 78.8861 63.811 76.7944 67.7221C74.7027 71.6333 71.6333 74.7027 67.7221 76.7944C63.811 78.8861 59.9316 80 49.2334 80H30.7666C20.0684 80 16.189 78.8861 12.2779 76.7944C8.36674 74.7027 5.29728 71.6333 3.20559 67.7221C1.11391 63.811 0 59.9316 0 49.2334L0 30.7666C0 20.0684 1.11391 16.189 3.20559 12.2779C5.29728 8.36674 8.36674 5.29728 12.2779 3.20559C16.189 1.11391 20.0684 0 30.7666 0Z" fill="#3DFF2C"/>
<path d="M39.9995 60.001C51.0452 60.001 59.9995 51.0467 59.9995 40.001C59.9995 28.9553 51.0452 20.001 39.9995 20.001C28.9538 20.001 19.9995 28.9553 19.9995 40.001C19.9995 51.0467 28.9538 60.001 39.9995 60.001Z" stroke="black" stroke-width="3" stroke-linecap="round" stroke-linejoin="round"/>
<path d="M32 22H34C30.1 33.68 30.1 46.32 34 58H32" stroke="black" stroke-width="3" stroke-linecap="round" stroke-linejoin="round"/>
<path d="M46 22C49.9 33.68 49.9 46.32 46 58" stroke="black" stroke-width="3" stroke-linecap="round" stroke-linejoin="round"/>
<path d="M22 48V46C33.68 49.9 46.32 49.9 58 46V48" stroke="black" stroke-width="3" stroke-linecap="round" stroke-linejoin="round"/>
<path d="M22 34.0002C33.68 30.1002 46.32 30.1002 58 34.0002" stroke="black" stroke-width="3" stroke-linecap="round" stroke-linejoin="round"/>
</svg>
