<svg width="87" height="34" viewBox="0 0 87 34" fill="none" xmlns="http://www.w3.org/2000/svg">
<path d="M79.9413 27.433V33.7638H77.8223V19.5474H79.913V24.8369H80.0476C80.3028 24.263 80.6926 23.8072 81.217 23.4694C81.7415 23.1315 82.4265 22.9626 83.2723 22.9626C84.0188 22.9626 84.6708 23.113 85.2283 23.4138C85.7906 23.7146 86.2253 24.1635 86.5324 24.7605C86.8442 25.3529 87.0001 26.0933 87.0001 26.9818V33.7638H84.8811V27.2317C84.8811 26.4496 84.6755 25.8434 84.2645 25.413C83.8534 24.978 83.2817 24.7605 82.5494 24.7605C82.0486 24.7605 81.5997 24.8646 81.2028 25.0729C80.8107 25.2811 80.5012 25.5866 80.2744 25.9892C80.0523 26.3872 79.9413 26.8684 79.9413 27.433Z" fill="black"/>
<path d="M71.0842 33.9792C70.0305 33.9792 69.1234 33.7455 68.3627 33.2781C67.6067 32.8061 67.0256 32.1559 66.6193 31.3275C66.2129 30.4992 66.0098 29.5505 66.0098 28.4815C66.0098 27.3986 66.2177 26.443 66.6334 25.6146C67.0492 24.7816 67.6351 24.1314 68.391 23.664C69.147 23.1966 70.0376 22.9629 71.0629 22.9629C71.8897 22.9629 72.6268 23.1133 73.2741 23.4141C73.9214 23.7103 74.4435 24.1268 74.8403 24.6636C75.242 25.2004 75.4806 25.8275 75.5562 26.5448H73.4938C73.3804 26.045 73.1205 25.6146 72.7142 25.2536C72.3126 24.8927 71.774 24.7122 71.0983 24.7122C70.5077 24.7122 69.9904 24.8649 69.5463 25.1703C69.1068 25.4711 68.7643 25.9015 68.5186 26.4615C68.2729 27.0168 68.1501 27.6739 68.1501 28.4329C68.1501 29.2103 68.2706 29.8814 68.5115 30.4459C68.7525 31.0105 69.0927 31.4479 69.5321 31.7579C69.9762 32.068 70.4983 32.223 71.0983 32.223C71.4999 32.223 71.8637 32.1513 72.1898 32.0078C72.5205 31.8597 72.7969 31.6492 73.0189 31.3761C73.2457 31.1031 73.404 30.7745 73.4938 30.3904H75.5562C75.4806 31.0799 75.2514 31.6954 74.8687 32.2369C74.486 32.7783 73.9734 33.2041 73.3308 33.5141C72.6929 33.8242 71.9441 33.9792 71.0842 33.9792Z" fill="black"/>
<path d="M59.229 33.7639V23.1016H61.2772V24.7953H61.3906C61.589 24.2215 61.9387 23.7703 62.4395 23.4417C62.945 23.1085 63.5167 22.9419 64.1546 22.9419C64.2869 22.9419 64.4428 22.9465 64.6223 22.9558C64.8066 22.965 64.9507 22.9766 65.0546 22.9905V24.9758C64.9696 24.9526 64.8184 24.9272 64.6011 24.8994C64.3837 24.867 64.1664 24.8508 63.949 24.8508C63.4482 24.8508 63.0017 24.955 62.6096 25.1632C62.2221 25.3668 61.915 25.6514 61.6882 26.017C61.4615 26.378 61.3481 26.7899 61.3481 27.2526V33.7639H59.229Z" fill="black"/>
<path d="M51.0344 34C50.3446 34 49.7209 33.8751 49.1634 33.6252C48.6059 33.3707 48.1641 33.0028 47.8381 32.5215C47.5168 32.0402 47.3562 31.4502 47.3562 30.7514C47.3562 30.1498 47.4743 29.6546 47.7106 29.2659C47.9468 28.8771 48.2657 28.5694 48.6673 28.3426C49.0689 28.1159 49.5178 27.9447 50.0139 27.829C50.51 27.7133 51.0155 27.6253 51.5305 27.5652C52.1825 27.4911 52.7117 27.431 53.118 27.3847C53.5244 27.3338 53.8197 27.2528 54.0039 27.1417C54.1882 27.0307 54.2803 26.8502 54.2803 26.6003V26.5517C54.2803 25.9455 54.1055 25.4758 53.7559 25.1426C53.411 24.8094 52.896 24.6428 52.2109 24.6428C51.4975 24.6428 50.9352 24.7978 50.5242 25.1078C50.1178 25.4133 49.8367 25.7534 49.6808 26.1283L47.6893 25.684C47.9255 25.0361 48.2704 24.5132 48.724 24.1152C49.1823 23.7126 49.7091 23.421 50.3045 23.2406C50.8998 23.0554 51.5258 22.9629 52.1825 22.9629C52.6172 22.9629 53.0779 23.0138 53.5645 23.1156C54.0559 23.2128 54.5142 23.3933 54.9394 23.6571C55.3694 23.9208 55.7214 24.298 55.9954 24.7885C56.2695 25.2744 56.4065 25.9061 56.4065 26.6836V33.764H54.337V32.3063H54.252C54.115 32.5747 53.9094 32.8385 53.6354 33.0976C53.3614 33.3568 53.0094 33.572 52.5794 33.7432C52.1495 33.9144 51.6345 34 51.0344 34ZM51.4951 32.3341C52.081 32.3341 52.5818 32.2207 52.9976 31.9939C53.4181 31.7672 53.737 31.471 53.9543 31.1054C54.1764 30.7352 54.2874 30.3395 54.2874 29.9184V28.5439C54.2118 28.618 54.0654 28.6874 53.848 28.7522C53.6354 28.8124 53.3921 28.8656 53.118 28.9118C52.844 28.9535 52.5771 28.9928 52.3172 29.0299C52.0573 29.0623 51.84 29.09 51.6652 29.1132C51.2541 29.1641 50.8785 29.2497 50.5383 29.37C50.2029 29.4903 49.9336 29.6639 49.7304 29.8906C49.532 30.1127 49.4327 30.4089 49.4327 30.7791C49.4327 31.2928 49.6264 31.6816 50.0139 31.9453C50.4013 32.2045 50.895 32.3341 51.4951 32.3341Z" fill="black"/>
<path d="M40.845 33.9792C39.7725 33.9792 38.8488 33.7548 38.0739 33.3059C37.3038 32.8524 36.7085 32.2161 36.288 31.3969C35.8722 30.5732 35.6643 29.6083 35.6643 28.5023C35.6643 27.4101 35.8722 26.4476 36.288 25.6146C36.7085 24.7816 37.2944 24.1314 38.0456 23.664C38.8015 23.1966 39.6851 22.9629 40.6962 22.9629C41.3104 22.9629 41.9057 23.0624 42.4821 23.2614C43.0586 23.4604 43.5759 23.7727 44.0342 24.1985C44.4925 24.6242 44.854 25.1773 45.1186 25.8575C45.3831 26.5332 45.5154 27.3546 45.5154 28.3218V29.0576H36.862V27.5027H43.4389C43.4389 26.9566 43.3255 26.473 43.0987 26.0519C42.8719 25.6262 42.553 25.2906 42.142 25.0454C41.7356 24.8001 41.2584 24.6775 40.7104 24.6775C40.115 24.6775 39.5953 24.8209 39.1512 25.1078C38.7118 25.3901 38.3716 25.7604 38.1306 26.2185C37.8944 26.672 37.7763 27.1649 37.7763 27.6971V28.9118C37.7763 29.6245 37.9038 30.2308 38.159 30.7305C38.4188 31.2303 38.7803 31.6121 39.2433 31.8759C39.7063 32.1351 40.2473 32.2646 40.8663 32.2646C41.2679 32.2646 41.634 32.2091 41.9648 32.098C42.2955 31.9824 42.5814 31.8111 42.8223 31.5844C43.0633 31.3576 43.2476 31.0776 43.3751 30.7444L45.3808 31.0985C45.2201 31.6769 44.9319 32.1837 44.5161 32.6187C44.1051 33.049 43.5877 33.3846 42.9641 33.6252C42.3451 33.8612 41.6388 33.9792 40.845 33.9792Z" fill="black"/>
<path d="M33.6107 25.7048L31.69 26.038C31.6097 25.7974 31.4822 25.5683 31.3073 25.3508C31.1373 25.1333 30.9057 24.9551 30.6128 24.8163C30.3199 24.6775 29.9537 24.6081 29.5143 24.6081C28.9142 24.6081 28.4134 24.7399 28.0118 25.0037C27.6102 25.2629 27.4094 25.5984 27.4094 26.0103C27.4094 26.3666 27.5441 26.6535 27.8134 26.871C28.0827 27.0885 28.5174 27.2667 29.1174 27.4055L30.8467 27.7942C31.8483 28.021 32.5948 28.3704 33.0862 28.8424C33.5776 29.3145 33.8233 29.9276 33.8233 30.682C33.8233 31.3206 33.6343 31.8898 33.2563 32.3896C32.883 32.8848 32.361 33.2735 31.69 33.5558C31.0239 33.8381 30.2514 33.9792 29.3726 33.9792C28.1536 33.9792 27.159 33.7247 26.3889 33.2156C25.6187 32.702 25.1463 31.9731 24.9714 31.029L27.0196 30.7236C27.1472 31.2465 27.4094 31.6422 27.8063 31.9106C28.2032 32.1744 28.7205 32.3063 29.3584 32.3063C30.0529 32.3063 30.6081 32.1651 31.0239 31.8829C31.4396 31.5959 31.6475 31.2465 31.6475 30.8347C31.6475 30.5015 31.52 30.2215 31.2648 29.9947C31.0144 29.768 30.6293 29.5968 30.1096 29.4811L28.267 29.0854C27.2511 28.8586 26.4999 28.4977 26.0132 28.0025C25.5313 27.5073 25.2904 26.8803 25.2904 26.1213C25.2904 25.4919 25.4699 24.9412 25.829 24.4692C26.1881 23.9972 26.6842 23.6293 27.3173 23.3655C27.9504 23.0971 28.6756 22.9629 29.493 22.9629C30.6695 22.9629 31.5956 23.2128 32.2712 23.7126C32.9468 24.2078 33.3933 24.8718 33.6107 25.7048Z" fill="black"/>
<path d="M18.4319 33.9792C17.3594 33.9792 16.4357 33.7548 15.6608 33.3059C14.8907 32.8524 14.2954 32.2161 13.8749 31.3969C13.4591 30.5732 13.2512 29.6083 13.2512 28.5023C13.2512 27.4101 13.4591 26.4476 13.8749 25.6146C14.2954 24.7816 14.8813 24.1314 15.6325 23.664C16.3885 23.1966 17.272 22.9629 18.2831 22.9629C18.8973 22.9629 19.4926 23.0624 20.0691 23.2614C20.6455 23.4604 21.1628 23.7727 21.6211 24.1985C22.0794 24.6242 22.4409 25.1773 22.7055 25.8575C22.9701 26.5332 23.1024 27.3546 23.1024 28.3218V29.0576H14.4489V27.5027H21.0258C21.0258 26.9566 20.9124 26.473 20.6856 26.0519C20.4588 25.6262 20.1399 25.2906 19.7289 25.0454C19.3225 24.8001 18.8453 24.6775 18.2973 24.6775C17.7019 24.6775 17.1822 24.8209 16.7381 25.1078C16.2987 25.3901 15.9585 25.7604 15.7175 26.2185C15.4813 26.672 15.3632 27.1649 15.3632 27.6971V28.9118C15.3632 29.6245 15.4908 30.2308 15.7459 30.7305C16.0058 31.2303 16.3672 31.6121 16.8302 31.8759C17.2933 32.1351 17.8342 32.2646 18.4532 32.2646C18.8548 32.2646 19.221 32.2091 19.5517 32.098C19.8824 31.9824 20.1683 31.8111 20.4092 31.5844C20.6502 31.3576 20.8345 31.0776 20.962 30.7444L22.9677 31.0985C22.8071 31.6769 22.5188 32.1837 22.1031 32.6187C21.692 33.049 21.1746 33.3846 20.551 33.6252C19.932 33.8612 19.2257 33.9792 18.4319 33.9792Z" fill="black"/>
<path d="M1.18359 33.7638V19.5474H6.35721C7.4817 19.5474 8.41484 19.7371 9.15663 20.1166C9.90314 20.4961 10.4607 21.0213 10.8292 21.6923C11.1977 22.3587 11.382 23.1292 11.382 24.0039C11.382 24.8739 11.1954 25.6398 10.8221 26.3015C10.4536 26.9587 9.89606 27.4701 9.14954 27.8356C8.40776 28.2012 7.47461 28.384 6.35012 28.384H2.43093V26.5376H6.15168C6.8604 26.5376 7.43682 26.4381 7.88094 26.2391C8.3298 26.0401 8.65817 25.7508 8.86606 25.3714C9.07395 24.9919 9.17789 24.5361 9.17789 24.0039C9.17789 23.4671 9.07158 23.002 8.85897 22.6086C8.65108 22.2153 8.32271 21.9145 7.87386 21.7062C7.42973 21.4933 6.84622 21.3869 6.12333 21.3869H3.37352V33.7638H1.18359ZM8.3487 27.3497L11.9348 33.7638H9.44012L5.92489 27.3497H8.3487Z" fill="black"/>
<path d="M48.1803 14.4247C47.3015 14.4247 46.5172 14.2048 45.8274 13.7652C45.1423 13.3209 44.6037 12.6893 44.2115 11.8702C43.8241 11.0464 43.6304 10.0584 43.6304 8.90608C43.6304 7.75378 43.8264 6.76807 44.2186 5.94896C44.6155 5.12985 45.1588 4.50279 45.8486 4.06778C46.5385 3.63278 47.3204 3.41527 48.1945 3.41527C48.8701 3.41527 49.4135 3.52634 49.8245 3.74847C50.2403 3.96597 50.5616 4.2205 50.7884 4.51205C51.0199 4.80359 51.1994 5.06043 51.327 5.28256H51.4546V0H53.5736V14.2164H51.5042V12.5574H51.327C51.1994 12.7841 51.0152 13.0433 50.7742 13.3348C50.538 13.6264 50.212 13.8809 49.7962 14.0984C49.3804 14.3159 48.8418 14.4247 48.1803 14.4247ZM48.6481 12.6546C49.2576 12.6546 49.7726 12.4972 50.1931 12.1825C50.6183 11.8632 50.9396 11.4213 51.1569 10.8567C51.379 10.2921 51.49 9.63495 51.49 8.88526C51.49 8.14482 51.3813 7.49694 51.164 6.94161C50.9467 6.38628 50.6277 5.95359 50.2072 5.64353C49.7867 5.33347 49.267 5.17844 48.6481 5.17844C48.0102 5.17844 47.4787 5.34041 47.0535 5.66435C46.6282 5.98829 46.3069 6.43024 46.0896 6.9902C45.877 7.55016 45.7707 8.18184 45.7707 8.88526C45.7707 9.59793 45.8794 10.2389 46.0967 10.8081C46.314 11.3773 46.6353 11.8285 47.0605 12.1617C47.4905 12.4903 48.0197 12.6546 48.6481 12.6546Z" fill="black"/>
<path d="M41.2543 0V14.2164H39.1353V0H41.2543Z" fill="black"/>
<path d="M31.4758 14.2165V3.55419H33.524V5.24794H33.6374C33.8358 4.6741 34.1855 4.2229 34.6863 3.89433C35.1919 3.56113 35.7636 3.39453 36.4014 3.39453C36.5337 3.39453 36.6896 3.39916 36.8691 3.40841C37.0534 3.41767 37.1975 3.42924 37.3015 3.44312V5.42842C37.2164 5.40528 37.0652 5.37983 36.8479 5.35207C36.6305 5.31967 36.4132 5.30347 36.1959 5.30347C35.695 5.30347 35.2486 5.4076 34.8564 5.61585C34.469 5.81947 34.1619 6.10407 33.9351 6.46966C33.7083 6.83063 33.5949 7.2425 33.5949 7.70527V14.2165H31.4758Z" fill="black"/>
<path d="M24.0361 14.4314C23.0155 14.4314 22.1249 14.2023 21.3642 13.7442C20.6035 13.286 20.0129 12.6451 19.5924 11.8213C19.1719 10.9976 18.9617 10.035 18.9617 8.93362C18.9617 7.82759 19.1719 6.86039 19.5924 6.03202C20.0129 5.20366 20.6035 4.5604 21.3642 4.10226C22.1249 3.64411 23.0155 3.41504 24.0361 3.41504C25.0566 3.41504 25.9472 3.64411 26.7079 4.10226C27.4686 4.5604 28.0592 5.20366 28.4797 6.03202C28.9002 6.86039 29.1105 7.82759 29.1105 8.93362C29.1105 10.035 28.9002 10.9976 28.4797 11.8213C28.0592 12.6451 27.4686 13.286 26.7079 13.7442C25.9472 14.2023 25.0566 14.4314 24.0361 14.4314ZM24.0432 12.689C24.7046 12.689 25.2527 12.5178 25.6874 12.1753C26.122 11.8329 26.4433 11.3771 26.6512 10.8079C26.8638 10.2386 26.9701 9.61158 26.9701 8.92668C26.9701 8.2464 26.8638 7.62165 26.6512 7.05244C26.4433 6.4786 26.122 6.01814 25.6874 5.67106C25.2527 5.32398 24.7046 5.15044 24.0432 5.15044C23.377 5.15044 22.8242 5.32398 22.3848 5.67106C21.9501 6.01814 21.6264 6.4786 21.4138 7.05244C21.2059 7.62165 21.102 8.2464 21.102 8.92668C21.102 9.61158 21.2059 10.2386 21.4138 10.8079C21.6264 11.3771 21.9501 11.8329 22.3848 12.1753C22.8242 12.5178 23.377 12.689 24.0432 12.689Z" fill="black"/>
<path d="M4.0255 14.2164L0 0H2.30332L5.13109 11.0094H5.26575L8.20691 0H10.489L13.4301 11.0163H13.5648L16.3855 0H18.6959L14.6633 14.2164H12.4592L9.40464 3.56799H9.29125L6.23669 14.2164H4.0255Z" fill="black"/>
</svg>
